<svg xmlns="http://www.w3.org/2000/svg" xmlns:xlink="http://www.w3.org/1999/xlink" width="500" zoomAndPan="magnify" viewBox="0 0 375 374.999991" height="500" preserveAspectRatio="xMidYMid meet" version="1.0"><defs><g/><clipPath id="a696473bdf"><path d="M 5.222656 5.222656 L 369.777344 5.222656 L 369.777344 369.777344 L 5.222656 369.777344 Z M 5.222656 5.222656 " clip-rule="nonzero"/></clipPath><clipPath id="cf1fd911f5"><path d="M 187.5 5.222656 C 86.832031 5.222656 5.222656 86.832031 5.222656 187.5 C 5.222656 288.167969 86.832031 369.777344 187.5 369.777344 C 288.167969 369.777344 369.777344 288.167969 369.777344 187.5 C 369.777344 86.832031 288.167969 5.222656 187.5 5.222656 Z M 187.5 5.222656 " clip-rule="nonzero"/></clipPath><clipPath id="71aa3af3f6"><path d="M 0.222656 0.222656 L 364.777344 0.222656 L 364.777344 364.777344 L 0.222656 364.777344 Z M 0.222656 0.222656 " clip-rule="nonzero"/></clipPath><clipPath id="329c4b05df"><path d="M 182.5 0.222656 C 81.832031 0.222656 0.222656 81.832031 0.222656 182.5 C 0.222656 283.167969 81.832031 364.777344 182.5 364.777344 C 283.167969 364.777344 364.777344 283.167969 364.777344 182.5 C 364.777344 81.832031 283.167969 0.222656 182.5 0.222656 Z M 182.5 0.222656 " clip-rule="nonzero"/></clipPath><clipPath id="da733f3361"><rect x="0" width="365" y="0" height="365"/></clipPath><clipPath id="c803c184ef"><rect x="0" width="260" y="0" height="375"/></clipPath></defs><g clip-path="url(#a696473bdf)"><g clip-path="url(#cf1fd911f5)"><g transform="matrix(1, 0, 0, 1, 5, 5)"><g clip-path="url(#da733f3361)"><g clip-path="url(#71aa3af3f6)"><g clip-path="url(#329c4b05df)"><path fill="#693200" d="M 0.222656 0.222656 L 364.777344 0.222656 L 364.777344 364.777344 L 0.222656 364.777344 Z M 0.222656 0.222656 " fill-opacity="1" fill-rule="nonzero"/></g></g></g></g></g></g><g transform="matrix(1, 0, 0, 1, 52, 0)"><g clip-path="url(#c803c184ef)"><g fill="#ffffff" fill-opacity="1"><g transform="translate(0.823487, 325.891833)"><g><path d="M 234.65625 -33.125 C 209.070312 -11.851562 179.859375 -1.21875 147.015625 -1.21875 C 109.859375 -1.21875 78.085938 -14.410156 51.703125 -40.796875 C 25.304688 -67.179688 12.109375 -98.953125 12.109375 -136.109375 C 12.109375 -173.535156 25.304688 -205.441406 51.703125 -231.828125 C 78.085938 -258.210938 109.859375 -271.40625 147.015625 -271.40625 C 180.128906 -271.40625 209.34375 -260.632812 234.65625 -239.09375 L 194.265625 -199.109375 C 180.535156 -209.609375 164.785156 -214.859375 147.015625 -214.859375 C 125.472656 -214.859375 107.023438 -207.1875 91.671875 -191.84375 C 76.328125 -176.488281 68.65625 -157.910156 68.65625 -136.109375 C 68.65625 -114.566406 76.328125 -96.125 91.671875 -80.78125 C 107.023438 -65.425781 125.472656 -57.75 147.015625 -57.75 C 164.785156 -57.75 180.535156 -63 194.265625 -73.5 Z M 234.65625 -33.125 "/></g></g></g></g></g></svg>